<svg xmlns="http://www.w3.org/2000/svg" xmlns:xlink="http://www.w3.org/1999/xlink" width="500" zoomAndPan="magnify" viewBox="0 0 375 374.999991" height="500" preserveAspectRatio="xMidYMid meet" version="1.0"><defs><clipPath id="595fac67d9"><path d="M 92.984375 103.734375 L 282.015625 103.734375 L 282.015625 292.769531 L 92.984375 292.769531 Z M 92.984375 103.734375 " clip-rule="nonzero"/></clipPath><clipPath id="ae8dd03bba"><path d="M 110.234375 103.734375 L 264.765625 103.734375 C 274.292969 103.734375 282.015625 111.460938 282.015625 120.984375 L 282.015625 275.519531 C 282.015625 285.042969 274.292969 292.769531 264.765625 292.769531 L 110.234375 292.769531 C 100.707031 292.769531 92.984375 285.042969 92.984375 275.519531 L 92.984375 120.984375 C 92.984375 111.460938 100.707031 103.734375 110.234375 103.734375 Z M 110.234375 103.734375 " clip-rule="nonzero"/></clipPath></defs><g clip-path="url(#595fac67d9)"><g clip-path="url(#ae8dd03bba)"><path fill="#ffffff" d="M 92.984375 103.734375 L 282.015625 103.734375 L 282.015625 292.769531 L 92.984375 292.769531 Z M 92.984375 103.734375 " fill-opacity="1" fill-rule="nonzero"/></g></g><path fill="#7c12f5" d="M 215.386719 154.035156 C 215.386719 140.488281 205.824219 133.011719 189.03125 133.011719 L 158.140625 133.011719 L 158.140625 176.652344 L 184.1875 176.652344 C 204.292969 176.589844 215.386719 168.5 215.386719 154.035156 Z M 327.855469 146.1875 C 322.03125 127.25 321.175781 104.019531 321.847656 86.0625 C 322.523438 67.367188 307.933594 50.207031 288.320312 50.207031 L 86.796875 50.207031 C 67.121094 50.207031 52.597656 67.429688 53.269531 86.0625 C 53.882812 104.019531 53.085938 127.25 47.265625 146.1875 C 41.378906 165.191406 31.511719 177.203125 15.269531 178.734375 L 15.269531 196.203125 C 31.453125 197.734375 41.378906 209.75 47.265625 228.75 C 53.085938 247.6875 53.945312 270.917969 53.269531 288.875 C 52.597656 307.570312 67.183594 324.730469 86.796875 324.730469 L 288.261719 324.730469 C 307.933594 324.730469 322.460938 307.507812 321.785156 288.875 C 321.175781 270.917969 321.972656 247.6875 327.792969 228.75 C 333.675781 209.75 343.546875 197.734375 359.726562 196.203125 L 359.726562 178.734375 C 343.605469 177.203125 333.675781 165.191406 327.855469 146.1875 Z M 194.976562 260.496094 L 134.972656 260.496094 L 134.972656 114.441406 L 194.667969 114.441406 C 221.207031 114.441406 238.613281 128.78125 238.613281 150.847656 C 238.613281 166.355469 226.910156 180.207031 211.953125 182.597656 L 211.953125 183.394531 C 232.300781 185.597656 245.96875 199.695312 245.96875 219.125 C 245.96875 244.929688 226.785156 260.496094 194.976562 260.496094 Z M 188.847656 193.875 L 158.140625 193.875 L 158.140625 241.925781 L 190.195312 241.925781 C 211.15625 241.925781 222.25 233.527344 222.25 217.714844 C 222.25 201.964844 210.851562 193.875 188.847656 193.875 Z M 188.847656 193.875 " fill-opacity="1" fill-rule="nonzero"/></svg>