<svg xmlns="http://www.w3.org/2000/svg" xmlns:xlink="http://www.w3.org/1999/xlink" width="500" zoomAndPan="magnify" viewBox="0 0 375 374.999991" height="500" preserveAspectRatio="xMidYMid meet" version="1.0"><defs><clipPath id="a90385e0ff"><path d="M 21.078125 70 L 138 70 L 138 219 L 21.078125 219 Z M 21.078125 70 " clip-rule="nonzero"/></clipPath><clipPath id="12ea3a1ddc"><path d="M 21.078125 59.480469 L 257 59.480469 L 257 137 L 21.078125 137 Z M 21.078125 59.480469 " clip-rule="nonzero"/></clipPath><clipPath id="e876f65ca7"><path d="M 119 239 L 236 239 L 236 329.480469 L 119 329.480469 Z M 119 239 " clip-rule="nonzero"/></clipPath><clipPath id="accef00541"><path d="M 235 171 L 354 171 L 354 329.480469 L 235 329.480469 Z M 235 171 " clip-rule="nonzero"/></clipPath></defs><path fill="#5271ff" d="M 40.851562 104.847656 L 40.851562 218.917969 L 60.476562 207.878906 L 60.476562 115.886719 Z M 40.851562 104.847656 " fill-opacity="1" fill-rule="nonzero"/><g clip-path="url(#a90385e0ff)"><path fill="#5ce1e6" d="M 21.226562 207.878906 L 21.226562 70.507812 L 137.746094 136.738281 L 137.746094 160.042969 L 40.851562 104.847656 L 40.851562 218.917969 Z M 21.226562 207.878906 " fill-opacity="1" fill-rule="nonzero"/></g><path fill="#5271ff" d="M 256.722656 70.503906 L 256.722656 207.875 L 178.230469 252.03125 L 158.605469 239.765625 L 237.097656 195.613281 L 237.097656 103.621094 L 137.746094 160.042969 L 137.746094 136.738281 Z M 256.722656 70.503906 " fill-opacity="1" fill-rule="nonzero"/><g clip-path="url(#12ea3a1ddc)"><path fill="#38b6ff" d="M 237.097656 59.464844 L 138.976562 114.660156 L 40.851562 59.464844 L 21.226562 70.503906 L 137.746094 136.738281 L 256.722656 70.503906 Z M 237.097656 59.464844 " fill-opacity="1" fill-rule="nonzero"/></g><path fill="#5ce1e6" d="M 217.46875 114.660156 L 217.46875 184.574219 L 237.097656 195.613281 L 237.097656 103.621094 Z M 217.46875 114.660156 " fill-opacity="1" fill-rule="nonzero"/><path fill="#38b6ff" d="M 119.351562 239.769531 L 217.46875 184.574219 L 237.097656 195.613281 L 158.605469 239.769531 L 235.871094 283.921875 L 314.375 239.769531 L 333.988281 250.804688 L 235.871094 305.996094 Z M 119.351562 239.769531 " fill-opacity="1" fill-rule="nonzero"/><g clip-path="url(#e876f65ca7)"><path fill="#5ce1e6" d="M 119.351562 239.769531 L 119.351562 263.070312 L 235.871094 329.3125 L 235.871094 305.996094 Z M 119.351562 239.769531 " fill-opacity="1" fill-rule="nonzero"/></g><path fill="#5ce1e6" d="M 333.988281 250.804688 L 333.988281 182.121094 L 314.375 171.082031 L 314.375 239.769531 Z M 333.988281 250.804688 " fill-opacity="1" fill-rule="nonzero"/><g clip-path="url(#accef00541)"><path fill="#5271ff" d="M 235.871094 305.996094 L 333.988281 250.804688 L 333.988281 182.121094 L 353.617188 171.082031 L 353.617188 263.070312 L 235.871094 329.3125 Z M 235.871094 305.996094 " fill-opacity="1" fill-rule="nonzero"/></g><path fill="#38b6ff" d="M 353.617188 171.082031 L 333.988281 182.121094 L 314.375 171.082031 L 333.988281 160.042969 Z M 353.617188 171.082031 " fill-opacity="1" fill-rule="nonzero"/><path fill="#5271ff" d="M 333.988281 160.042969 L 333.988281 136.738281 L 353.617188 125.699219 L 353.617188 149.003906 Z M 333.988281 160.042969 " fill-opacity="1" fill-rule="nonzero"/><path fill="#5ce1e6" d="M 333.988281 136.738281 L 333.988281 160.042969 L 314.375 149.003906 L 314.375 125.699219 Z M 333.988281 136.738281 " fill-opacity="1" fill-rule="nonzero"/><path fill="#38b6ff" d="M 353.617188 125.699219 L 333.988281 136.738281 L 314.375 125.699219 L 333.988281 114.660156 Z M 353.617188 125.699219 " fill-opacity="1" fill-rule="nonzero"/></svg>