<svg xmlns="http://www.w3.org/2000/svg" xmlns:xlink="http://www.w3.org/1999/xlink" width="500" zoomAndPan="magnify" viewBox="0 0 375 374.999991" height="500" preserveAspectRatio="xMidYMid meet" version="1.0"><defs><clipPath id="200f637412"><path d="M 16.84375 16.910156 L 363.886719 16.910156 L 363.886719 366 L 16.84375 366 Z M 16.84375 16.910156 " clip-rule="nonzero"/></clipPath><clipPath id="272e67810f"><path d="M 190.367188 16.910156 C 94.535156 16.910156 16.84375 94.949219 16.84375 191.21875 C 16.84375 287.484375 94.535156 365.523438 190.367188 365.523438 C 286.199219 365.523438 363.886719 287.484375 363.886719 191.21875 C 363.886719 94.949219 286.199219 16.910156 190.367188 16.910156 Z M 190.367188 16.910156 " clip-rule="nonzero"/></clipPath></defs><g clip-path="url(#200f637412)"><g clip-path="url(#272e67810f)"><path fill="#ffffff" d="M 16.84375 16.910156 L 363.886719 16.910156 L 363.886719 365.308594 L 16.84375 365.308594 Z M 16.84375 16.910156 " fill-opacity="1" fill-rule="nonzero"/></g></g><path fill="#000000" d="M 279.695312 35.433594 C 161.152344 -34.324219 10.527344 50.875 9.214844 188.425781 C 7.933594 322.742188 149.964844 409.5 268.238281 350.378906 L 139.101562 160.230469 L 139.101562 277.929688 C 139.101562 290.96875 114.167969 290.96875 114.167969 277.929688 L 114.167969 120.144531 C 114.167969 109.792969 133.382812 108.941406 138.828125 117.941406 L 286.015625 340.238281 C 396.585938 268.960938 395.089844 103.339844 279.695312 35.433594 Z M 263.0625 258.179688 L 238.050781 219.945312 L 238.050781 115.265625 C 238.050781 105.503906 263.0625 105.503906 263.0625 115.265625 Z M 263.0625 258.179688 " fill-opacity="1" fill-rule="nonzero"/></svg>