<svg xmlns="http://www.w3.org/2000/svg" xmlns:xlink="http://www.w3.org/1999/xlink" width="144" zoomAndPan="magnify" viewBox="0 0 108 107.999999" height="144" preserveAspectRatio="xMidYMid meet" version="1.0"><defs><clipPath id="69654e2beb"><path d="M 0 6.480469 L 108 6.480469 L 108 101.730469 L 0 101.730469 Z M 0 6.480469 " clip-rule="nonzero"/></clipPath></defs><g clip-path="url(#69654e2beb)"><path fill="#ff3e01" d="M 54.582031 19.015625 C 64.003906 19.183594 72.519531 23.066406 78.714844 29.269531 C 84.859375 35.40625 88.730469 43.832031 88.960938 53.152344 C 94.238281 53.511719 100.316406 53.65625 107.320312 53.65625 L 107.320312 54.390625 C 100.316406 54.390625 94.238281 54.535156 88.960938 54.894531 C 88.730469 64.214844 84.859375 72.632812 78.714844 78.777344 C 72.519531 84.980469 64.003906 88.863281 54.582031 89.023438 C 54.421875 92.789062 54.371094 96.933594 54.371094 101.523438 L 53.546875 101.523438 C 53.546875 96.933594 53.503906 92.789062 53.34375 89.023438 C 43.921875 88.863281 35.402344 84.980469 29.199219 78.777344 C 23.058594 72.632812 19.191406 64.214844 18.960938 54.894531 C 13.679688 54.535156 7.597656 54.390625 0.601562 54.390625 L 0.601562 53.65625 C 7.597656 53.65625 13.679688 53.511719 18.960938 53.152344 C 19.191406 43.832031 23.058594 35.40625 29.199219 29.269531 C 35.402344 23.066406 43.921875 19.183594 53.34375 19.015625 C 53.503906 15.257812 53.546875 11.113281 53.546875 6.523438 L 54.371094 6.523438 C 54.371094 11.113281 54.421875 15.257812 54.582031 19.015625 Z M 20.113281 53.066406 C 26.21875 52.601562 31.21875 51.828125 35.308594 50.617188 C 35.734375 42.367188 37.675781 34.957031 40.613281 29.40625 C 42.71875 25.414062 45.339844 22.359375 48.285156 20.628906 C 41.207031 21.824219 34.875 25.21875 30.011719 30.074219 C 24.09375 35.992188 20.359375 44.089844 20.113281 53.066406 Z M 36.472656 50.25 C 49.007812 46.109375 52.4375 37.417969 53.292969 20.179688 C 48.769531 20.511719 44.660156 24.175781 41.621094 29.9375 C 38.8125 35.253906 36.929688 42.347656 36.472656 50.25 Z M 54.632812 20.179688 C 55.484375 37.417969 58.914062 46.109375 71.449219 50.25 C 70.984375 42.347656 69.113281 35.253906 66.304688 29.9375 C 63.265625 24.175781 59.152344 20.511719 54.632812 20.179688 Z M 72.613281 50.617188 C 76.703125 51.828125 81.703125 52.601562 87.8125 53.066406 C 87.566406 44.097656 83.824219 35.992188 77.910156 30.074219 C 73.046875 25.21875 66.714844 21.824219 59.640625 20.628906 C 62.578125 22.359375 65.203125 25.414062 67.308594 29.40625 C 70.242188 34.957031 72.1875 42.367188 72.613281 50.617188 Z M 87.8125 54.976562 C 81.703125 55.445312 76.703125 56.21875 72.613281 57.429688 C 72.1875 65.671875 70.242188 73.089844 67.308594 78.640625 C 65.203125 82.632812 62.578125 85.679688 59.640625 87.417969 C 66.714844 86.222656 73.046875 82.828125 77.910156 77.972656 C 83.824219 72.054688 87.566406 63.949219 87.8125 54.976562 Z M 71.449219 57.789062 C 58.914062 61.929688 55.484375 70.621094 54.632812 87.867188 C 59.152344 87.535156 63.265625 83.863281 66.304688 78.109375 C 69.113281 72.785156 70.984375 65.699219 71.449219 57.789062 Z M 53.292969 87.867188 C 52.4375 70.621094 49.007812 61.929688 36.472656 57.789062 C 36.929688 65.699219 38.8125 72.785156 41.621094 78.109375 C 44.660156 83.863281 48.769531 87.535156 53.292969 87.867188 Z M 35.308594 57.429688 C 31.21875 56.21875 26.210938 55.445312 20.113281 54.976562 C 20.359375 63.949219 24.09375 72.054688 30.011719 77.972656 C 34.875 82.828125 41.207031 86.222656 48.285156 87.417969 C 45.339844 85.679688 42.71875 82.632812 40.613281 78.640625 C 37.675781 73.082031 35.734375 65.671875 35.308594 57.429688 " fill-opacity="1" fill-rule="nonzero"/></g></svg>