<svg xmlns="http://www.w3.org/2000/svg" xmlns:xlink="http://www.w3.org/1999/xlink" width="144" zoomAndPan="magnify" viewBox="0 0 108 107.999999" height="144" preserveAspectRatio="xMidYMid meet" version="1.0"><path fill="#ff3e01" d="M 53.914062 16.808594 C 83.265625 4.589844 107.054688 11.371094 107.054688 31.941406 C 107.054688 52.519531 83.265625 79.101562 53.914062 91.320312 C 24.558594 103.539062 0.761719 96.769531 0.761719 76.1875 C 0.761719 55.617188 24.558594 29.027344 53.914062 16.808594 Z M 53.914062 18.128906 C 81.289062 6.734375 103.476562 13.582031 103.476562 33.4375 C 103.476562 53.28125 81.289062 78.609375 53.914062 90.007812 C 26.535156 101.402344 4.339844 94.554688 4.339844 74.699219 C 4.339844 54.855469 26.535156 29.527344 53.914062 18.128906 " fill-opacity="1" fill-rule="evenodd"/><path fill="#ff3e01" d="M 53.914062 16.808594 C 24.558594 4.589844 0.761719 11.371094 0.761719 31.941406 C 0.761719 52.519531 24.558594 79.101562 53.914062 91.320312 C 83.265625 103.539062 107.054688 96.769531 107.054688 76.1875 C 107.054688 55.617188 83.265625 29.027344 53.914062 16.808594 Z M 53.914062 18.128906 C 26.535156 6.734375 4.347656 13.582031 4.347656 33.4375 C 4.347656 53.28125 26.535156 78.609375 53.914062 90.007812 C 81.289062 101.402344 103.476562 94.554688 103.476562 74.699219 C 103.476562 54.855469 81.289062 29.527344 53.914062 18.128906 " fill-opacity="1" fill-rule="evenodd"/><path fill="#ff3e01" d="M 21.894531 54.191406 L 21.894531 53.9375 C 51.515625 53.9375 53.660156 51.472656 53.660156 37.617188 L 54.15625 37.617188 C 54.15625 51.472656 56.308594 53.9375 85.921875 53.9375 L 85.921875 54.191406 C 56.308594 54.191406 54.15625 56.667969 54.15625 70.511719 L 53.660156 70.511719 C 53.660156 56.667969 51.515625 54.191406 21.894531 54.191406 " fill-opacity="1" fill-rule="evenodd"/></svg>