<svg xmlns="http://www.w3.org/2000/svg" xmlns:xlink="http://www.w3.org/1999/xlink" width="144" zoomAndPan="magnify" viewBox="0 0 108 107.999999" height="144" preserveAspectRatio="xMidYMid meet" version="1.0"><defs><clipPath id="5227b5a3fb"><path d="M 5.398438 6.613281 L 102.898438 6.613281 L 102.898438 101.113281 L 5.398438 101.113281 Z M 5.398438 6.613281 " clip-rule="nonzero"/></clipPath></defs><g clip-path="url(#5227b5a3fb)"><path fill="#ff3e01" d="M 18.5 84.523438 L 18.441406 84.652344 C 16.679688 88.589844 13.859375 94.285156 11.992188 95.875 C 10.121094 97.652344 7.921875 98.539062 5.398438 98.539062 L 5.398438 101.0625 L 33.03125 101.0625 L 33.03125 98.539062 C 30.039062 98.539062 27.652344 98.070312 25.875 97.136719 C 24.101562 96.296875 23.515625 94.191406 23.210938 92.648438 C 22.90625 91.105469 23.691406 89.226562 24.054688 87.878906 C 24.136719 87.566406 24.242188 87.257812 24.355469 86.957031 Z M 42.914062 27.894531 C 48.085938 15.78125 51.964844 6.664062 51.964844 6.664062 L 54.632812 6.664062 L 90.679688 89 C 92.175781 92.648438 93.765625 95.171875 95.449219 96.574219 C 97.039062 97.882812 99.328125 98.539062 102.320312 98.539062 L 102.320312 101.0625 L 66.414062 101.0625 L 66.414062 98.257812 L 68.65625 98.539062 C 73.707031 98.539062 76.230469 96.808594 76.230469 93.347656 C 76.230469 91.945312 75.8125 90.125 74.96875 87.878906 L 67.675781 70.625 L 33.378906 70.625 L 35.765625 64.875 L 65.710938 64.875 L 49.582031 26.582031 L 48.117188 30.054688 Z M 42.914062 27.894531 " fill-opacity="1" fill-rule="nonzero"/></g><path fill="#ff3e01" d="M 40.226562 41.445312 C 40.207031 41.195312 40.175781 40.9375 40.175781 40.875 C 40.183594 39.941406 40.332031 39 40.597656 38.105469 C 41.316406 35.660156 42.71875 33.710938 44.570312 31.984375 C 45.125 31.464844 45.707031 30.964844 46.273438 30.457031 C 46.34375 30.398438 46.699219 29.996094 46.8125 30.039062 C 46.894531 30.070312 46.636719 30.78125 46.617188 30.839844 C 46.335938 31.742188 46.078125 32.660156 45.863281 33.582031 C 45.265625 36.148438 44.566406 38.761719 42.984375 40.921875 C 42.445312 41.652344 41.613281 42.59375 40.617188 42.699219 C 38.160156 46.800781 34.476562 49.835938 31.289062 53.351562 C 31.640625 53.078125 32 52.8125 32.367188 52.554688 C 35.613281 50.304688 39.238281 49.15625 43.167969 49.023438 C 44.019531 48.996094 44.867188 48.988281 45.71875 49.003906 C 45.8125 49.007812 46.445312 48.953125 46.480469 49.070312 C 46.53125 49.246094 45.796875 49.78125 45.691406 49.878906 C 44.761719 50.707031 43.800781 51.507812 42.871094 52.335938 C 39.878906 54.992188 36.085938 56.308594 32.171875 56.796875 C 31.191406 56.917969 29.523438 57.25 28.484375 56.855469 C 26.0625 60.371094 24.503906 64.285156 23.59375 68.4375 C 23.851562 67.925781 24.121094 67.421875 24.398438 66.921875 C 25.566406 64.820312 27.203125 62.105469 29.433594 60.847656 C 29.375 60.6875 29.34375 60.515625 29.34375 60.332031 C 29.34375 59.523438 30 58.863281 30.8125 58.863281 C 31.621094 58.863281 32.277344 59.523438 32.277344 60.332031 C 32.277344 61.144531 31.621094 61.800781 30.8125 61.800781 C 30.542969 61.800781 30.289062 61.730469 30.070312 61.601562 C 27.894531 62.714844 26.363281 65.378906 25.242188 67.390625 C 25.089844 67.664062 24.941406 67.933594 24.796875 68.207031 C 26.589844 65.75 28.863281 63.542969 31.589844 62.167969 C 31.960938 61.980469 34.078125 60.753906 34.535156 61.15625 C 34.65625 61.261719 34.152344 61.910156 34.09375 62.007812 C 33.542969 62.914062 33.089844 63.882812 32.65625 64.851562 C 31.148438 68.1875 29.058594 70.648438 25.804688 72.464844 C 24.867188 72.988281 23.703125 73.089844 22.777344 73.574219 C 22.527344 75.675781 22.332031 77.78125 22.09375 79.878906 C 22.292969 79.652344 22.496094 79.425781 22.699219 79.203125 C 23.925781 77.855469 25.292969 76.6875 26.886719 75.800781 C 26.921875 75.78125 26.964844 75.765625 27.003906 75.753906 C 27 75.707031 26.996094 75.65625 26.996094 75.609375 C 26.996094 74.796875 27.65625 74.140625 28.464844 74.140625 C 29.277344 74.140625 29.933594 74.796875 29.933594 75.609375 C 29.933594 76.417969 29.277344 77.078125 28.464844 77.078125 C 28.046875 77.078125 27.664062 76.898438 27.398438 76.617188 C 27.386719 76.625 27.371094 76.636719 27.355469 76.644531 C 25.855469 77.480469 24.566406 78.582031 23.414062 79.851562 C 23.011719 80.292969 22.613281 80.742188 22.226562 81.195312 C 22.167969 81.261719 22.128906 81.390625 22.082031 81.503906 C 22.011719 81.65625 21.9375 81.792969 21.859375 81.878906 L 21.851562 81.890625 C 21.589844 83.890625 21.269531 85.886719 20.800781 87.863281 C 20.511719 89.105469 20.136719 90.324219 19.765625 91.539062 C 19.699219 91.757812 19.628906 92.226562 19.484375 92.554688 C 19.378906 92.792969 19.230469 92.972656 19.070312 93.070312 C 18.839844 93.207031 18.542969 93.136719 18.40625 92.90625 C 18.273438 92.6875 18.339844 92.402344 18.546875 92.257812 C 18.5625 92.230469 18.644531 92.054688 18.679688 91.9375 C 18.75 91.679688 18.796875 91.410156 18.84375 91.257812 C 19.207031 90.0625 19.578125 88.863281 19.863281 87.644531 C 20.273438 85.898438 20.570312 84.140625 20.8125 82.375 C 20.660156 82.0625 20.476562 81.742188 20.460938 81.714844 C 19.671875 80.378906 18.601562 79.15625 17.515625 78.058594 C 14.96875 75.480469 13.570312 72.753906 13.9375 69.054688 C 13.996094 68.488281 14.074219 66.355469 14.660156 65.980469 C 14.703125 65.957031 15.113281 66.75 15.144531 66.804688 C 15.699219 67.753906 16.242188 68.707031 16.761719 69.671875 C 17.949219 71.890625 19.023438 74.128906 20.078125 76.410156 C 20.503906 77.328125 20.929688 78.167969 21.214844 79.058594 C 21.484375 76.605469 21.710938 74.144531 22.042969 71.691406 C 22.402344 69.015625 22.996094 66.414062 23.863281 63.925781 C 23.628906 63.753906 23.199219 63.519531 23.058594 63.390625 C 22.382812 62.777344 21.792969 62.085938 21.265625 61.34375 C 19.03125 58.203125 18.265625 54.207031 18.65625 50.414062 C 18.78125 49.179688 18.964844 47.9375 19.277344 46.734375 C 19.316406 46.570312 19.460938 45.753906 19.726562 45.742188 C 19.863281 45.738281 19.988281 46.6875 20.011719 46.789062 C 20.289062 47.894531 20.769531 48.925781 21.183594 49.984375 C 22.484375 53.316406 23.757812 56.796875 24.273438 60.371094 C 24.394531 59.734375 24.511719 59.097656 24.613281 58.457031 C 25.074219 55.546875 25.394531 52.707031 24.796875 49.800781 C 24.792969 49.789062 24.792969 49.78125 24.792969 49.773438 C 24.070312 49.679688 23.507812 49.0625 23.507812 48.316406 C 23.507812 47.503906 24.167969 46.847656 24.976562 46.847656 C 25.789062 46.847656 26.445312 47.503906 26.445312 48.316406 C 26.445312 48.851562 26.160156 49.316406 25.734375 49.574219 C 25.738281 49.585938 25.738281 49.59375 25.742188 49.605469 C 26.363281 52.628906 26.046875 55.582031 25.566406 58.609375 C 25.460938 59.285156 25.335938 59.957031 25.207031 60.628906 C 26.195312 58.535156 27.414062 56.542969 28.894531 54.675781 C 30.054688 53.210938 31.339844 51.867188 32.644531 50.542969 C 32.683594 50.425781 32.800781 50.148438 32.816406 50.019531 C 32.863281 49.597656 32.886719 49.171875 32.878906 48.75 C 32.859375 47.546875 32.664062 46.351562 32.460938 45.164062 C 31.796875 41.285156 31.585938 37.929688 32.980469 34.140625 C 33.296875 33.285156 33.652344 32.433594 34.113281 31.644531 C 34.171875 31.550781 34.472656 30.917969 34.617188 30.917969 C 34.683594 30.917969 34.789062 32.019531 34.804688 32.09375 C 35.015625 33.351562 35.3125 34.597656 35.589844 35.84375 C 36.226562 38.714844 35.8125 41.410156 35.320312 44.269531 C 35.183594 45.078125 35.0625 45.828125 34.921875 46.550781 C 35.28125 45.898438 35.621094 45.234375 35.929688 44.554688 C 37.203125 41.738281 38.175781 38.816406 38.527344 35.742188 C 38.019531 35.511719 37.667969 35 37.667969 34.40625 C 37.667969 33.59375 38.324219 32.9375 39.136719 32.9375 C 39.945312 32.9375 40.605469 33.59375 40.605469 34.40625 C 40.605469 35.09375 40.128906 35.671875 39.488281 35.832031 C 39.125 39.011719 38.125 42.039062 36.808594 44.953125 C 36.355469 45.953125 35.835938 46.917969 35.285156 47.863281 C 37.15625 45.914062 38.914062 43.871094 40.226562 41.445312 Z M 23.546875 70.109375 C 23.539062 70.105469 23.53125 70.097656 23.527344 70.09375 C 23.53125 70.097656 23.539062 70.105469 23.546875 70.109375 Z M 23.546875 70.109375 " fill-opacity="1" fill-rule="evenodd"/></svg>