<svg xmlns="http://www.w3.org/2000/svg" xmlns:xlink="http://www.w3.org/1999/xlink" width="144" zoomAndPan="magnify" viewBox="0 0 108 107.999999" height="144" preserveAspectRatio="xMidYMid meet" version="1.0"><path fill="#ff3e01" d="M 53.992188 108.085938 C 50.523438 108.085938 48.910156 99.296875 47.527344 88.804688 C 42.453125 98.089844 37.785156 105.710938 34.539062 104.464844 C 31.039062 103.109375 33.273438 92.957031 36.070312 81.605469 C 26.820312 88.761719 18.445312 94.914062 15.785156 92.257812 C 13.332031 89.800781 18.414062 82.449219 24.84375 74.050781 C 14.691406 77.027344 6.003906 79.117188 4.597656 75.945312 C 3.074219 72.515625 11.835938 66.910156 21.832031 60.863281 C 10.238281 59.386719 -0.0429688 57.804688 -0.0429688 54.050781 C -0.0429688 50.582031 8.753906 48.96875 19.246094 47.585938 C 9.960938 42.511719 2.332031 37.84375 3.578125 34.605469 C 4.933594 31.097656 15.09375 33.332031 26.441406 36.125 C 19.285156 26.878906 13.132812 18.496094 15.785156 15.84375 C 18.242188 13.390625 25.59375 18.464844 34 24.902344 C 31.019531 14.75 28.925781 6.054688 32.097656 4.648438 C 35.574219 3.109375 41.269531 12.089844 47.390625 22.234375 C 48.523438 10.5 49.742188 0.015625 53.992188 0.015625 C 57.957031 0.015625 59.289062 9.121094 60.363281 19.851562 C 65.234375 10.230469 69.75 2.210938 73.445312 3.636719 C 77.460938 5.1875 74.710938 15.640625 71.496094 27.15625 C 80.722656 19.550781 89.160156 12.800781 92.199219 15.84375 C 95.003906 18.644531 89.511719 26.019531 82.683594 34.375 C 92.929688 31.007812 101.792969 28.535156 103.394531 32.15625 C 105.140625 36.097656 95.804688 41.535156 85.382812 47.410156 C 97.289062 48.550781 108.027344 49.75 108.035156 54.050781 C 108.027344 58.015625 98.921875 59.339844 88.191406 60.421875 C 97.820312 65.289062 105.832031 69.808594 104.40625 73.503906 C 102.855469 77.519531 92.402344 74.769531 80.886719 71.546875 C 88.5 80.773438 95.25 89.21875 92.199219 92.257812 C 89.398438 95.0625 82.023438 89.5625 73.671875 82.734375 C 77.035156 92.988281 79.507812 101.84375 75.886719 103.453125 C 72 105.179688 66.640625 96.082031 60.855469 85.816406 C 59.359375 97.570312 57.792969 108.085938 53.992188 108.085938 " fill-opacity="1" fill-rule="evenodd"/><path fill="#000000" d="M 62.992188 37.925781 C 60.5625 37.925781 58.601562 41.71875 58.601562 46.394531 C 58.601562 51.070312 60.5625 54.859375 62.992188 54.859375 C 65.414062 54.859375 67.375 51.070312 67.375 46.394531 C 67.375 41.71875 65.414062 37.925781 62.992188 37.925781 " fill-opacity="1" fill-rule="evenodd"/><path fill="#000000" d="M 45.710938 37.925781 C 43.285156 37.925781 41.320312 41.71875 41.320312 46.394531 C 41.320312 51.070312 43.285156 54.859375 45.710938 54.859375 C 48.140625 54.859375 50.101562 51.070312 50.101562 46.394531 C 50.101562 41.71875 48.140625 37.925781 45.710938 37.925781 " fill-opacity="1" fill-rule="evenodd"/><path fill="#000000" d="M 32.90625 59.0625 C 34.058594 63.769531 36.75 67.867188 40.40625 70.8125 C 44.132812 73.804688 48.851562 75.585938 53.992188 75.585938 C 59.140625 75.585938 63.859375 73.804688 67.585938 70.8125 C 71.242188 67.867188 73.933594 63.769531 75.085938 59.0625 C 75.453125 58.972656 75.78125 58.800781 76.066406 58.578125 C 76.511719 58.21875 76.832031 57.722656 76.953125 57.144531 C 77.042969 56.742188 76.789062 56.34375 76.382812 56.261719 C 75.984375 56.171875 75.589844 56.425781 75.507812 56.832031 C 75.453125 57.0625 75.320312 57.273438 75.140625 57.414062 C 74.957031 57.566406 74.734375 57.648438 74.480469 57.648438 C 74.230469 57.648438 74.007812 57.566406 73.828125 57.414062 C 73.648438 57.273438 73.511719 57.0625 73.460938 56.832031 C 73.371094 56.425781 72.980469 56.171875 72.574219 56.261719 C 72.179688 56.34375 71.925781 56.742188 72.007812 57.144531 C 72.132812 57.722656 72.457031 58.21875 72.898438 58.578125 C 73.101562 58.742188 73.332031 58.871094 73.582031 58.964844 C 72.472656 63.246094 70 66.96875 66.65625 69.652344 C 63.195312 72.441406 58.789062 74.101562 53.992188 74.101562 C 49.203125 74.101562 44.796875 72.441406 41.335938 69.652344 C 37.996094 66.96875 35.519531 63.246094 34.414062 58.964844 C 34.660156 58.871094 34.890625 58.742188 35.09375 58.578125 C 35.535156 58.21875 35.859375 57.722656 35.984375 57.144531 C 36.070312 56.742188 35.8125 56.34375 35.417969 56.261719 C 35.011719 56.171875 34.621094 56.425781 34.53125 56.832031 C 34.480469 57.0625 34.34375 57.273438 34.164062 57.414062 C 33.984375 57.566406 33.761719 57.648438 33.511719 57.648438 C 33.257812 57.648438 33.035156 57.558594 32.855469 57.414062 C 32.675781 57.273438 32.539062 57.0625 32.488281 56.832031 C 32.402344 56.425781 32.007812 56.171875 31.609375 56.261719 C 31.207031 56.34375 30.949219 56.742188 31.039062 57.144531 C 31.160156 57.722656 31.484375 58.21875 31.925781 58.578125 C 32.210938 58.800781 32.539062 58.972656 32.90625 59.0625 " fill-opacity="1" fill-rule="nonzero"/><path fill="#ff3e01" d="M 61.929688 39.859375 C 61.335938 39.859375 60.855469 40.789062 60.855469 41.933594 C 60.855469 43.082031 61.335938 44.011719 61.929688 44.011719 C 62.519531 44.011719 63.007812 43.082031 63.007812 41.933594 C 63.007812 40.789062 62.519531 39.859375 61.929688 39.859375 " fill-opacity="1" fill-rule="evenodd"/><path fill="#ff3e01" d="M 44.371094 39.859375 C 43.777344 39.859375 43.300781 40.789062 43.300781 41.933594 C 43.300781 43.082031 43.777344 44.011719 44.371094 44.011719 C 44.964844 44.011719 45.449219 43.082031 45.449219 41.933594 C 45.449219 40.789062 44.964844 39.859375 44.371094 39.859375 " fill-opacity="1" fill-rule="evenodd"/></svg>