<svg xmlns="http://www.w3.org/2000/svg" xmlns:xlink="http://www.w3.org/1999/xlink" width="144" zoomAndPan="magnify" viewBox="0 0 108 107.999999" height="144" preserveAspectRatio="xMidYMid meet" version="1.0"><defs><clipPath id="137756c2d2"><path d="M 14 15 L 92 15 L 92 93.28125 L 14 93.28125 Z M 14 15 " clip-rule="nonzero"/></clipPath><clipPath id="9ca570ae08"><path d="M 83 14.53125 L 102 14.53125 L 102 33 L 83 33 Z M 83 14.53125 " clip-rule="nonzero"/></clipPath></defs><g clip-path="url(#137756c2d2)"><path fill="#ff3e01" d="M 15.421875 46.929688 C 15.390625 47.679688 15.367188 48.4375 15.378906 49.191406 C 15.21875 49.5 15.066406 49.8125 14.929688 50.128906 C 15.050781 49.046875 15.21875 47.976562 15.421875 46.929688 Z M 30.859375 23.242188 C 30.171875 24.011719 29.550781 24.863281 28.984375 25.792969 C 27.691406 26.441406 26.503906 27.144531 25.421875 27.902344 C 27.082031 26.1875 28.902344 24.621094 30.859375 23.242188 Z M 80.253906 27.894531 C 79.175781 27.136719 77.980469 26.429688 76.691406 25.789062 C 76.121094 24.847656 75.488281 23.988281 74.796875 23.214844 C 76.570312 24.464844 78.25 25.867188 79.8125 27.429688 C 79.964844 27.578125 80.109375 27.738281 80.253906 27.894531 Z M 90.300781 49.1875 C 90.316406 48.421875 90.292969 47.664062 90.257812 46.90625 C 90.460938 47.957031 90.617188 49.007812 90.738281 50.078125 C 90.605469 49.78125 90.460938 49.480469 90.300781 49.1875 Z M 90.148438 62.378906 C 90.066406 60.9375 89.660156 59.535156 88.949219 58.167969 C 89.660156 55.652344 90.097656 53.097656 90.246094 50.542969 C 90.628906 51.460938 90.859375 52.394531 90.964844 53.34375 C 90.96875 53.691406 90.984375 54.050781 90.984375 54.40625 C 90.984375 57.117188 90.699219 59.789062 90.148438 62.378906 Z M 78.953125 82.199219 C 79.046875 82.0625 79.125 81.921875 79.207031 81.78125 C 79.511719 81.554688 79.800781 81.316406 80.097656 81.078125 C 80 81.175781 79.910156 81.285156 79.8125 81.382812 C 79.53125 81.664062 79.238281 81.925781 78.953125 82.199219 Z M 25.558594 81.058594 C 25.855469 81.300781 26.152344 81.542969 26.453125 81.769531 C 26.535156 81.910156 26.621094 82.050781 26.714844 82.191406 C 26.429688 81.921875 26.140625 81.65625 25.859375 81.382812 C 25.757812 81.273438 25.660156 81.164062 25.558594 81.058594 Z M 19.210938 45.417969 C 19.242188 47.902344 19.554688 50.453125 20.171875 53.054688 C 20.21875 53.25 20.269531 53.445312 20.316406 53.640625 C 19.972656 53.941406 19.640625 54.25 19.328125 54.5625 C 18.378906 55.515625 17.59375 56.496094 16.988281 57.496094 C 16.304688 54.929688 15.914062 52.324219 15.828125 49.714844 C 16.601562 48.203125 17.742188 46.761719 19.210938 45.417969 Z M 17.101562 41.050781 C 17.84375 39.625 18.917969 38.273438 20.285156 37.019531 C 19.597656 39.441406 19.238281 41.972656 19.203125 44.585938 C 18.832031 44.90625 18.476562 45.238281 18.140625 45.566406 C 17.199219 46.511719 16.425781 47.472656 15.804688 48.464844 C 15.8125 46.972656 15.917969 45.484375 16.125 44.011719 C 16.410156 43.007812 16.742188 42.019531 17.101562 41.050781 Z M 22.921875 30.765625 C 22.664062 31.210938 22.414062 31.671875 22.179688 32.136719 C 21.890625 32.390625 21.609375 32.636719 21.34375 32.902344 C 21.847656 32.167969 22.371094 31.449219 22.921875 30.765625 Z M 27.558594 28.617188 C 25.84375 29.488281 24.320312 30.441406 23.007812 31.460938 C 23.425781 30.699219 23.882812 29.953125 24.375 29.222656 C 25.597656 28.222656 27.011719 27.300781 28.582031 26.472656 C 28.210938 27.15625 27.863281 27.867188 27.558594 28.617188 Z M 35.730469 23.621094 C 35.40625 24.296875 35.117188 25.019531 34.855469 25.78125 C 33.765625 26.101562 32.707031 26.453125 31.679688 26.832031 C 30.425781 27.300781 29.253906 27.796875 28.152344 28.332031 C 28.492188 27.550781 28.871094 26.808594 29.285156 26.113281 C 31.226562 25.152344 33.390625 24.3125 35.730469 23.621094 Z M 32.765625 21.972656 C 33.320312 21.628906 33.882812 21.296875 34.457031 20.984375 C 35.738281 20.394531 37.125 19.871094 38.59375 19.421875 C 37.578125 20.460938 36.710938 21.6875 35.980469 23.109375 C 33.722656 23.761719 31.609375 24.546875 29.703125 25.441406 C 30.582031 24.101562 31.609375 22.941406 32.765625 21.972656 Z M 39.257812 18.785156 C 39.164062 18.808594 39.066406 18.835938 38.96875 18.867188 C 39.085938 18.820312 39.207031 18.773438 39.324219 18.730469 C 39.300781 18.75 39.28125 18.765625 39.257812 18.785156 Z M 45.792969 17.445312 C 43.835938 17.699219 41.949219 18.066406 40.160156 18.539062 C 40.171875 18.5 40.179688 18.457031 40.171875 18.417969 C 42.148438 17.722656 44.199219 17.179688 46.308594 16.820312 C 46.125 17.007812 45.953125 17.21875 45.792969 17.445312 Z M 65.515625 18.527344 C 63.726562 18.054688 61.84375 17.6875 59.882812 17.433594 C 59.726562 17.214844 59.558594 17.007812 59.378906 16.820312 C 61.46875 17.179688 63.523438 17.707031 65.511719 18.402344 C 65.5 18.445312 65.5 18.484375 65.515625 18.527344 Z M 66.398438 18.765625 C 66.382812 18.75 66.359375 18.730469 66.339844 18.710938 C 66.457031 18.757812 66.582031 18.800781 66.699219 18.851562 C 66.601562 18.824219 66.5 18.792969 66.398438 18.765625 Z M 77.527344 28.320312 C 76.425781 27.792969 75.253906 27.289062 74.003906 26.824219 C 72.972656 26.445312 71.914062 26.097656 70.828125 25.777344 C 70.566406 25.015625 70.269531 24.296875 69.945312 23.609375 C 72.285156 24.308594 74.453125 25.140625 76.386719 26.105469 C 76.808594 26.804688 77.1875 27.542969 77.527344 28.320312 Z M 81.292969 29.207031 C 81.789062 29.9375 82.25 30.683594 82.664062 31.445312 C 81.351562 30.429688 79.835938 29.476562 78.121094 28.613281 C 77.8125 27.863281 77.46875 27.144531 77.089844 26.464844 C 78.660156 27.296875 80.070312 28.207031 81.292969 29.207031 Z M 83.484375 32.121094 C 83.253906 31.644531 83 31.179688 82.734375 30.714844 C 83.300781 31.433594 83.847656 32.164062 84.363281 32.910156 C 84.082031 32.644531 83.789062 32.375 83.484375 32.121094 Z M 87.550781 45.566406 C 87.207031 45.230469 86.851562 44.90625 86.480469 44.578125 C 86.441406 41.941406 86.074219 39.386719 85.378906 36.945312 C 86.742188 38.207031 87.820312 39.570312 88.570312 41.011719 C 88.941406 42.007812 89.273438 43.015625 89.558594 44.042969 C 89.765625 45.507812 89.867188 46.976562 89.871094 48.457031 C 89.257812 47.46875 88.484375 46.507812 87.550781 45.566406 Z M 86.230469 54.5625 C 85.949219 54.277344 85.648438 54 85.339844 53.730469 C 85.398438 53.503906 85.457031 53.277344 85.507812 53.054688 C 86.128906 50.453125 86.441406 47.902344 86.46875 45.421875 C 86.683594 45.617188 86.894531 45.816406 87.09375 46.019531 C 88.289062 47.210938 89.207031 48.445312 89.855469 49.710938 C 89.769531 52.363281 89.363281 55.023438 88.652344 57.636719 C 88.035156 56.582031 87.226562 55.558594 86.230469 54.5625 Z M 87.078125 62.207031 C 86.496094 61.222656 85.734375 60.273438 84.808594 59.34375 C 84.496094 59.035156 84.171875 58.738281 83.832031 58.4375 C 84.371094 57.027344 84.84375 55.609375 85.226562 54.191406 C 85.464844 54.410156 85.703125 54.632812 85.933594 54.859375 C 87.019531 55.945312 87.875 57.070312 88.496094 58.214844 C 88.105469 59.558594 87.628906 60.894531 87.078125 62.207031 Z M 89.710938 63.6875 C 89.347656 64.660156 88.953125 65.589844 88.527344 66.488281 C 88.402344 65.183594 88.007812 63.910156 87.339844 62.667969 C 87.894531 61.382812 88.375 60.085938 88.777344 58.765625 C 89.417969 60.121094 89.742188 61.515625 89.742188 62.9375 C 89.742188 63.1875 89.730469 63.441406 89.710938 63.6875 Z M 88.566406 67.367188 C 88.757812 66.988281 88.941406 66.601562 89.125 66.207031 C 88.941406 66.761719 88.753906 67.308594 88.546875 67.859375 C 88.558594 67.691406 88.566406 67.535156 88.566406 67.367188 Z M 71.945312 85.28125 C 72.207031 84.667969 72.339844 84.039062 72.363281 83.390625 C 74.84375 82.101562 77.417969 80.441406 79.867188 78.351562 C 79.796875 79.414062 79.460938 80.46875 78.886719 81.488281 C 76.738281 83.074219 74.359375 84.328125 71.945312 85.28125 Z M 68.246094 89.3125 C 68.210938 89.324219 68.179688 89.339844 68.148438 89.34375 C 68.703125 88.988281 69.21875 88.621094 69.675781 88.226562 C 70.460938 87.996094 71.238281 87.714844 71.996094 87.40625 C 70.777344 88.109375 69.53125 88.746094 68.246094 89.3125 Z M 35.957031 88.210938 C 36.402344 88.601562 36.898438 88.96875 37.4375 89.3125 C 37.429688 89.3125 37.417969 89.308594 37.40625 89.300781 C 36.132812 88.742188 34.878906 88.101562 33.667969 87.394531 C 34.414062 87.703125 35.179688 87.980469 35.957031 88.210938 Z M 25.8125 78.351562 C 28.257812 80.4375 30.835938 82.09375 33.316406 83.386719 C 33.332031 84.03125 33.46875 84.660156 33.722656 85.277344 C 31.3125 84.316406 28.933594 83.066406 26.785156 81.484375 C 26.210938 80.464844 25.875 79.410156 25.8125 78.351562 Z M 17.109375 67.351562 C 17.109375 67.519531 17.117188 67.679688 17.125 67.855469 C 16.914062 67.292969 16.71875 66.730469 16.535156 66.164062 C 16.71875 66.566406 16.910156 66.96875 17.109375 67.351562 Z M 21.847656 58.429688 C 21.507812 58.734375 21.175781 59.03125 20.867188 59.34375 C 19.9375 60.269531 19.1875 61.222656 18.605469 62.195312 C 18.03125 60.839844 17.546875 59.464844 17.144531 58.070312 C 17.929688 56.671875 19.042969 55.339844 20.4375 54.097656 C 20.820312 55.546875 21.296875 56.992188 21.847656 58.429688 Z M 26.449219 50.121094 C 26.753906 51.640625 27.121094 53.167969 27.550781 54.691406 C 25.515625 55.714844 23.710938 56.871094 22.191406 58.140625 C 21.640625 56.691406 21.171875 55.238281 20.792969 53.789062 C 22.363281 52.445312 24.265625 51.21875 26.449219 50.121094 Z M 26.222656 32.988281 C 25.78125 35.03125 25.515625 37.234375 25.464844 39.597656 C 25.457031 39.894531 25.460938 40.191406 25.460938 40.488281 C 23.25 41.589844 21.289062 42.839844 19.640625 44.210938 C 19.710938 41.53125 20.128906 38.945312 20.894531 36.472656 C 22.390625 35.203125 24.1875 34.039062 26.222656 32.988281 Z M 26.347656 32.417969 C 24.363281 33.421875 22.613281 34.53125 21.132812 35.71875 C 21.527344 34.578125 21.992188 33.464844 22.53125 32.378906 C 23.894531 31.210938 25.515625 30.140625 27.347656 29.179688 C 26.957031 30.203125 26.617188 31.28125 26.347656 32.417969 Z M 33.890625 29.488281 C 32.339844 29.941406 30.847656 30.457031 29.441406 31.019531 C 28.539062 31.386719 27.675781 31.769531 26.847656 32.167969 C 27.140625 31.019531 27.492188 29.914062 27.910156 28.890625 C 29.941406 27.867188 32.226562 26.980469 34.695312 26.246094 C 34.375 27.257812 34.101562 28.339844 33.890625 29.488281 Z M 43.371094 24.394531 C 43.203125 25.410156 43.0625 26.472656 42.960938 27.570312 C 39.949219 27.988281 37.054688 28.582031 34.34375 29.355469 C 34.570312 28.191406 34.851562 27.113281 35.191406 26.101562 C 37.742188 25.367188 40.484375 24.792969 43.371094 24.394531 Z M 43.890625 21.886719 C 43.722656 22.546875 43.578125 23.238281 43.441406 23.96875 C 40.625 24.351562 37.910156 24.90625 35.351562 25.632812 C 35.628906 24.863281 35.929688 24.140625 36.273438 23.460938 C 38.65625 22.785156 41.214844 22.253906 43.890625 21.886719 Z M 52.625 20.867188 C 49.820312 20.871094 47.070312 21.050781 44.441406 21.382812 C 44.855469 19.953125 45.378906 18.75 46.007812 17.847656 C 48.152344 17.566406 50.367188 17.417969 52.625 17.410156 Z M 61.242188 21.382812 C 58.605469 21.050781 55.855469 20.871094 53.046875 20.867188 L 53.046875 17.410156 C 55.316406 17.414062 57.53125 17.558594 59.660156 17.828125 C 60.296875 18.738281 60.816406 19.941406 61.242188 21.382812 Z M 62.238281 23.960938 C 62.109375 23.238281 61.960938 22.539062 61.789062 21.882812 C 64.46875 22.25 67.023438 22.777344 69.40625 23.453125 C 69.746094 24.132812 70.054688 24.863281 70.332031 25.632812 C 67.769531 24.902344 65.058594 24.34375 62.238281 23.960938 Z M 71.335938 29.335938 C 68.644531 28.574219 65.753906 27.976562 62.722656 27.558594 C 62.617188 26.464844 62.480469 25.40625 62.308594 24.394531 C 65.199219 24.789062 67.941406 25.367188 70.492188 26.097656 C 70.828125 27.105469 71.109375 28.179688 71.335938 29.335938 Z M 78.828125 32.140625 C 76.707031 31.113281 74.34375 30.21875 71.789062 29.472656 C 71.574219 28.320312 71.308594 27.253906 70.984375 26.242188 C 73.457031 26.980469 75.738281 27.863281 77.769531 28.878906 C 78.1875 29.90625 78.539062 30.996094 78.828125 32.140625 Z M 79.332031 32.382812 C 79.054688 31.253906 78.722656 30.1875 78.332031 29.175781 C 80.164062 30.132812 81.777344 31.203125 83.140625 32.367188 C 83.675781 33.4375 84.144531 34.546875 84.535156 35.675781 C 83.042969 34.480469 81.292969 33.375 79.332031 32.382812 Z M 80.222656 40.484375 C 80.222656 40.191406 80.222656 39.894531 80.21875 39.597656 C 80.164062 37.210938 79.898438 34.972656 79.445312 32.910156 C 81.476562 33.953125 83.269531 35.125 84.761719 36.398438 C 85.539062 38.894531 85.972656 41.503906 86.042969 44.207031 C 84.386719 42.839844 82.433594 41.589844 80.222656 40.484375 Z M 78.125 54.691406 C 78.558594 53.183594 78.921875 51.679688 79.21875 50.179688 C 81.40625 51.289062 83.300781 52.527344 84.863281 53.875 C 84.492188 55.296875 84.03125 56.730469 83.492188 58.144531 C 81.96875 56.871094 80.164062 55.71875 78.125 54.691406 Z M 81.65625 62.335938 C 80.238281 61.152344 78.5625 60.078125 76.671875 59.128906 C 77.171875 57.792969 77.613281 56.453125 78.007812 55.101562 C 80.039062 56.128906 81.828125 57.285156 83.328125 58.5625 C 82.832031 59.832031 82.277344 61.089844 81.65625 62.335938 Z M 85.085938 66.253906 C 84.527344 65.304688 83.800781 64.375 82.898438 63.464844 C 82.609375 63.179688 82.296875 62.898438 81.984375 62.625 C 82.609375 61.382812 83.167969 60.121094 83.671875 58.859375 C 83.957031 59.117188 84.242188 59.375 84.507812 59.640625 C 85.496094 60.636719 86.28125 61.652344 86.867188 62.699219 C 86.339844 63.898438 85.75 65.085938 85.085938 66.253906 Z M 63.089844 86.332031 C 63.058594 86.011719 62.972656 85.695312 62.832031 85.378906 C 65.898438 84.195312 68.769531 82.753906 71.410156 81.070312 C 71.746094 81.738281 71.917969 82.429688 71.933594 83.136719 C 68.617188 84.839844 65.484375 85.867188 63.089844 86.332031 Z M 62.933594 87.589844 C 63.03125 87.324219 63.085938 87.042969 63.101562 86.761719 C 65.484375 86.296875 68.601562 85.292969 71.925781 83.613281 C 71.875 84.25 71.699219 84.882812 71.394531 85.492188 C 68.484375 86.589844 65.554688 87.277344 62.933594 87.589844 Z M 60.785156 89.988281 C 61.15625 89.757812 61.492188 89.503906 61.785156 89.238281 C 63.964844 89.382812 66.332031 89.117188 68.667969 88.511719 C 68.027344 88.976562 67.304688 89.414062 66.523438 89.808594 C 64.71875 90.246094 63.265625 90.257812 60.785156 89.988281 Z M 47.703125 91.195312 C 49.234375 91.636719 50.996094 91.890625 52.835938 91.890625 C 53.75 91.890625 54.628906 91.832031 55.46875 91.722656 C 55.75 92 56.039062 92.226562 56.335938 92.394531 C 55.179688 92.496094 54.015625 92.554688 52.835938 92.554688 C 50.253906 92.554688 47.710938 92.296875 45.230469 91.796875 C 46.09375 91.722656 46.894531 91.523438 47.703125 91.195312 Z M 43.910156 89.238281 C 44.203125 89.503906 44.539062 89.757812 44.910156 89.988281 C 42.414062 90.257812 40.960938 90.246094 39.144531 89.804688 C 38.363281 89.410156 37.644531 88.976562 37.007812 88.507812 C 39.347656 89.117188 41.722656 89.382812 43.910156 89.238281 Z M 42.578125 86.761719 C 42.59375 87.039062 42.648438 87.320312 42.746094 87.589844 C 40.125 87.269531 37.191406 86.589844 34.277344 85.488281 C 33.976562 84.878906 33.796875 84.25 33.753906 83.613281 C 37.070312 85.289062 40.1875 86.296875 42.578125 86.761719 Z M 34.261719 81.058594 C 36.910156 82.753906 39.777344 84.195312 42.847656 85.375 C 42.699219 85.6875 42.613281 86.007812 42.582031 86.332031 C 40.1875 85.859375 37.0625 84.835938 33.738281 83.132812 C 33.753906 82.417969 33.9375 81.726562 34.261719 81.058594 Z M 20.355469 66.675781 C 19.734375 67.84375 19.371094 69.042969 19.273438 70.273438 C 18.652344 69.3125 18.070312 68.316406 17.535156 67.257812 C 17.550781 65.855469 17.902344 64.488281 18.554688 63.175781 C 19.089844 64.363281 19.691406 65.53125 20.355469 66.675781 Z M 23.699219 62.617188 C 23.375 62.898438 23.066406 63.179688 22.777344 63.464844 C 21.878906 64.367188 21.148438 65.296875 20.59375 66.25 C 19.933594 65.082031 19.339844 63.898438 18.816406 62.699219 C 19.570312 61.34375 20.652344 60.058594 22.007812 58.859375 C 22.511719 60.117188 23.074219 61.375 23.699219 62.617188 Z M 29.011719 59.121094 C 27.113281 60.074219 25.4375 61.148438 24.023438 62.332031 C 23.402344 61.089844 22.847656 59.824219 22.347656 58.5625 C 23.835938 57.308594 25.628906 56.152344 27.675781 55.121094 C 28.070312 56.460938 28.511719 57.800781 29.011719 59.121094 Z M 35.027344 52.28125 C 35.320312 53.648438 35.652344 55.03125 36.019531 56.421875 C 33.609375 57.117188 31.386719 57.960938 29.390625 58.933594 C 28.898438 57.605469 28.453125 56.269531 28.058594 54.929688 C 30.144531 53.914062 32.488281 53.023438 35.027344 52.28125 Z M 34.078125 47.171875 C 34.316406 48.707031 34.597656 50.269531 34.933594 51.851562 C 32.398438 52.585938 30.046875 53.472656 27.941406 54.503906 C 27.507812 52.972656 27.140625 51.445312 26.839844 49.925781 C 29.011719 48.867188 31.441406 47.9375 34.078125 47.171875 Z M 33.261719 38.15625 C 33.316406 40.855469 33.570312 43.734375 34.011719 46.734375 C 31.382812 47.496094 28.945312 48.414062 26.753906 49.484375 C 26.199219 46.589844 25.910156 43.734375 25.875 40.996094 C 28.085938 39.90625 30.566406 38.953125 33.261719 38.15625 Z M 33.410156 33.050781 C 33.285156 34.460938 33.234375 35.945312 33.246094 37.484375 C 30.589844 38.261719 28.113281 39.203125 25.882812 40.277344 C 25.882812 40.054688 25.882812 39.828125 25.886719 39.609375 C 25.941406 37.148438 26.222656 34.847656 26.707031 32.742188 C 28.84375 31.6875 31.21875 30.757812 33.804688 29.980469 C 33.636719 30.957031 33.5 31.972656 33.410156 33.050781 Z M 42.640625 35.519531 C 39.488281 35.945312 36.476562 36.566406 33.667969 37.359375 C 33.65625 35.894531 33.710938 34.464844 33.828125 33.082031 C 33.925781 31.953125 34.074219 30.871094 34.25 29.855469 C 36.957031 29.0625 39.871094 28.441406 42.917969 28.015625 C 42.707031 30.433594 42.625 33.007812 42.640625 35.519531 Z M 52.625 27.324219 L 52.625 34.847656 C 49.320312 34.859375 46.089844 35.074219 42.988281 35.476562 C 42.980469 32.796875 43.078125 30.261719 43.289062 27.960938 C 46.292969 27.558594 49.421875 27.339844 52.625 27.324219 Z M 52.625 23.761719 L 52.625 26.902344 C 49.476562 26.910156 46.351562 27.121094 43.332031 27.515625 C 43.445312 26.402344 43.585938 25.335938 43.765625 24.34375 C 46.601562 23.972656 49.574219 23.773438 52.625 23.761719 Z M 52.625 23.335938 C 49.621094 23.347656 46.683594 23.539062 43.839844 23.90625 C 43.980469 23.179688 44.136719 22.480469 44.3125 21.832031 C 46.984375 21.480469 49.773438 21.296875 52.625 21.289062 Z M 53.046875 23.335938 L 53.046875 21.289062 C 55.90625 21.296875 58.691406 21.480469 61.367188 21.828125 C 61.546875 22.476562 61.695312 23.171875 61.835938 23.90625 C 58.996094 23.539062 56.050781 23.347656 53.046875 23.335938 Z M 53.046875 26.902344 L 53.046875 23.761719 C 56.105469 23.765625 59.078125 23.96875 61.917969 24.339844 C 62.089844 25.335938 62.230469 26.394531 62.34375 27.507812 C 59.367188 27.117188 56.246094 26.910156 53.046875 26.902344 Z M 62.691406 35.476562 C 59.59375 35.070312 56.359375 34.855469 53.046875 34.847656 L 53.046875 27.324219 C 56.265625 27.332031 59.394531 27.550781 62.386719 27.9375 C 62.605469 30.246094 62.703125 32.789062 62.691406 35.476562 Z M 71.855469 33.082031 C 71.972656 34.464844 72.023438 35.894531 72.011719 37.359375 C 69.207031 36.566406 66.199219 35.945312 63.042969 35.519531 C 63.054688 32.996094 62.976562 30.417969 62.761719 27.988281 C 65.820312 28.410156 68.71875 29.019531 71.417969 29.792969 C 71.605469 30.835938 71.75 31.929688 71.855469 33.082031 Z M 72.433594 37.484375 C 72.449219 35.945312 72.394531 34.460938 72.277344 33.050781 C 72.179688 31.957031 72.042969 30.921875 71.871094 29.921875 C 74.453125 30.6875 76.832031 31.605469 78.957031 32.660156 C 79.449219 34.792969 79.738281 37.117188 79.796875 39.609375 C 79.800781 39.828125 79.796875 40.054688 79.800781 40.277344 C 77.570312 39.199219 75.097656 38.261719 72.433594 37.484375 Z M 71.660156 46.773438 C 72.113281 43.753906 72.367188 40.855469 72.421875 38.132812 C 75.101562 38.925781 77.582031 39.882812 79.800781 40.984375 C 79.773438 43.742188 79.472656 46.621094 78.921875 49.539062 C 76.734375 48.464844 74.289062 47.539062 71.660156 46.773438 Z M 70.746094 51.855469 C 71.082031 50.285156 71.355469 48.738281 71.59375 47.21875 C 71.914062 47.3125 72.238281 47.398438 72.554688 47.496094 C 74.835938 48.214844 76.933594 49.046875 78.828125 49.980469 C 78.53125 51.484375 78.171875 52.996094 77.742188 54.503906 C 75.628906 53.476562 73.285156 52.585938 70.746094 51.855469 Z M 69.667969 56.421875 C 70.035156 55.027344 70.363281 53.640625 70.65625 52.265625 C 73.1875 52.996094 75.527344 53.886719 77.625 54.914062 C 77.230469 56.257812 76.785156 57.605469 76.296875 58.9375 C 74.296875 57.964844 72.070312 57.117188 69.667969 56.421875 Z M 74.859375 62.484375 C 74.003906 64.40625 73.0625 66.265625 72.039062 68.054688 C 70.417969 67.257812 68.613281 66.574219 66.664062 66.007812 C 67.242188 64.445312 67.792969 62.835938 68.304688 61.191406 C 68.757812 59.726562 69.179688 58.273438 69.5625 56.835938 C 71.953125 57.523438 74.160156 58.359375 76.148438 59.332031 C 75.746094 60.390625 75.324219 61.445312 74.859375 62.484375 Z M 76.347656 70.789062 C 75.226562 69.851562 73.902344 69 72.417969 68.242188 C 73.441406 66.449219 74.386719 64.585938 75.246094 62.65625 C 75.707031 61.617188 76.132812 60.574219 76.527344 59.523438 C 78.402344 60.472656 80.0625 61.542969 81.453125 62.722656 C 80.042969 65.492188 78.332031 68.199219 76.347656 70.789062 Z M 77.402344 71.742188 C 77.171875 71.511719 76.921875 71.285156 76.667969 71.0625 C 78.652344 68.480469 80.367188 65.777344 81.785156 63.007812 C 82.066406 63.261719 82.339844 63.511719 82.59375 63.769531 C 83.539062 64.714844 84.285156 65.683594 84.835938 66.675781 C 84.691406 66.929688 84.546875 67.183594 84.394531 67.433594 C 82.90625 69.835938 81.179688 72.066406 79.238281 74.109375 C 78.773438 73.292969 78.164062 72.511719 77.402344 71.742188 Z M 70.292969 78.832031 C 70.148438 78.691406 69.992188 78.550781 69.832031 78.414062 C 72.152344 76.359375 74.34375 74.027344 76.328125 71.511719 C 76.355469 71.472656 76.382812 71.429688 76.410156 71.398438 C 76.652344 71.609375 76.882812 71.824219 77.101562 72.039062 C 77.871094 72.8125 78.476562 73.613281 78.933594 74.429688 C 76.742188 76.683594 74.273438 78.695312 71.566406 80.457031 C 71.242188 79.902344 70.816406 79.363281 70.292969 78.832031 Z M 61.976562 84.175781 C 61.945312 84.144531 61.917969 84.121094 61.886719 84.09375 C 64.484375 82.671875 67.0625 80.835938 69.515625 78.695312 C 69.683594 78.835938 69.84375 78.984375 69.996094 79.132812 C 70.5 79.640625 70.902344 80.160156 71.214844 80.691406 C 68.570312 82.382812 65.699219 83.824219 62.632812 85 C 62.457031 84.714844 62.242188 84.441406 61.976562 84.175781 Z M 36.152344 78.6875 C 38.609375 80.832031 41.195312 82.667969 43.792969 84.089844 C 43.761719 84.121094 43.726562 84.144531 43.699219 84.175781 C 43.4375 84.441406 43.21875 84.714844 43.042969 85 C 39.972656 83.824219 37.109375 82.375 34.460938 80.691406 C 34.871094 79.984375 35.445312 79.3125 36.152344 78.6875 Z M 29.265625 71.390625 C 29.296875 71.429688 29.324219 71.472656 29.355469 71.511719 C 31.332031 74.027344 33.527344 76.359375 35.84375 78.410156 C 35.6875 78.550781 35.53125 78.691406 35.378906 78.832031 C 34.855469 79.355469 34.429688 79.902344 34.105469 80.457031 C 31.402344 78.695312 28.933594 76.675781 26.746094 74.429688 C 27.335938 73.359375 28.1875 72.335938 29.265625 71.390625 Z M 29.011719 71.058594 C 28.757812 71.277344 28.507812 71.511719 28.277344 71.742188 C 27.507812 72.503906 26.902344 73.292969 26.4375 74.097656 C 24.492188 72.0625 22.769531 69.835938 21.289062 67.433594 C 21.132812 67.183594 20.992188 66.929688 20.839844 66.675781 C 21.558594 65.378906 22.59375 64.152344 23.894531 63.007812 C 25.316406 65.773438 27.027344 68.476562 29.011719 71.058594 Z M 30.4375 62.65625 C 31.289062 64.578125 32.234375 66.445312 33.261719 68.238281 C 31.777344 69 30.453125 69.851562 29.335938 70.78125 C 27.351562 68.199219 25.632812 65.492188 24.222656 62.722656 C 25.605469 61.558594 27.265625 60.488281 29.15625 59.539062 C 29.554688 60.585938 29.984375 61.625 30.4375 62.65625 Z M 37.378906 61.191406 C 37.894531 62.835938 38.445312 64.445312 39.015625 66.007812 C 37.066406 66.566406 35.261719 67.257812 33.640625 68.054688 C 32.621094 66.265625 31.675781 64.40625 30.820312 62.484375 C 30.359375 61.453125 29.941406 60.402344 29.539062 59.34375 C 31.511719 58.386719 33.722656 57.546875 36.125 56.855469 C 36.507812 58.285156 36.921875 59.738281 37.378906 61.191406 Z M 44.074219 55.195312 C 44.5 58.464844 44.996094 61.652344 45.546875 64.640625 C 43.414062 64.929688 41.378906 65.347656 39.46875 65.875 C 38.394531 62.980469 37.40625 59.894531 36.5625 56.730469 C 38.902344 56.070312 41.421875 55.558594 44.074219 55.195312 Z M 43.523438 50.515625 C 43.667969 51.9375 43.835938 53.363281 44.015625 54.769531 C 41.359375 55.125 38.820312 55.636719 36.449219 56.300781 C 36.089844 54.9375 35.757812 53.550781 35.460938 52.164062 C 37.96875 51.460938 40.675781 50.898438 43.523438 50.515625 Z M 43.046875 45.296875 C 43.121094 46.285156 43.199219 47.195312 43.273438 47.992188 C 43.332031 48.691406 43.402344 49.390625 43.480469 50.089844 C 40.625 50.46875 37.902344 51.023438 35.363281 51.730469 C 35.035156 50.171875 34.742188 48.609375 34.503906 47.046875 C 37.164062 46.296875 40.03125 45.707031 43.046875 45.296875 Z M 43.019531 44.875 C 40.003906 45.277344 37.125 45.859375 34.441406 46.617188 C 33.996094 43.699219 33.726562 40.808594 33.679688 38.03125 C 36.460938 37.230469 39.46875 36.597656 42.648438 36.167969 C 42.675781 39.304688 42.835938 42.34375 43.019531 44.875 Z M 52.625 44.234375 C 49.449219 44.238281 46.34375 44.445312 43.359375 44.828125 C 43.144531 41.839844 43.015625 38.90625 42.992188 36.117188 C 46.066406 35.707031 49.296875 35.496094 52.625 35.484375 Z M 62.320312 44.84375 C 59.339844 44.453125 56.230469 44.242188 53.046875 44.234375 L 53.046875 35.484375 C 56.359375 35.492188 59.59375 35.707031 62.691406 36.113281 C 62.667969 38.90625 62.539062 41.84375 62.320312 44.84375 Z M 62.664062 44.886719 C 62.847656 42.347656 63.003906 39.3125 63.035156 36.15625 C 66.191406 36.582031 69.203125 37.210938 72.003906 38.015625 C 71.953125 40.800781 71.679688 43.714844 71.238281 46.648438 C 68.558594 45.886719 65.679688 45.292969 62.664062 44.886719 Z M 62.203125 50.089844 C 62.273438 49.390625 62.34375 48.691406 62.410156 47.992188 C 62.480469 47.199219 62.554688 46.300781 62.632812 45.320312 C 65.609375 45.722656 68.476562 46.324219 71.171875 47.097656 C 70.929688 48.640625 70.644531 50.1875 70.3125 51.730469 C 67.773438 51.023438 65.050781 50.46875 62.203125 50.089844 Z M 61.664062 54.769531 C 61.84375 53.359375 62.011719 51.9375 62.160156 50.503906 C 64.992188 50.890625 67.703125 51.433594 70.226562 52.140625 C 69.925781 53.542969 69.597656 54.929688 69.234375 56.300781 C 66.855469 55.636719 64.324219 55.125 61.664062 54.769531 Z M 60.128906 64.640625 C 60.679688 61.644531 61.183594 58.457031 61.609375 55.191406 C 64.246094 55.546875 66.769531 56.054688 69.125 56.714844 C 68.277344 59.882812 67.285156 62.980469 66.214844 65.882812 C 64.304688 65.347656 62.265625 64.929688 60.128906 64.640625 Z M 62.410156 74.683594 C 61.066406 74.308594 59.628906 74.007812 58.125 73.796875 C 58.804688 71.226562 59.460938 68.257812 60.058594 65.054688 C 62.167969 65.339844 64.183594 65.75 66.066406 66.277344 C 64.917969 69.355469 63.667969 72.203125 62.410156 74.683594 Z M 66.425781 76.191406 C 65.339844 75.660156 64.144531 75.203125 62.851562 74.8125 C 64.128906 72.304688 65.371094 69.457031 66.515625 66.398438 C 68.445312 66.957031 70.234375 67.636719 71.832031 68.421875 C 70.222656 71.199219 68.40625 73.796875 66.425781 76.191406 Z M 66.808594 76.382812 C 68.785156 73.992188 70.601562 71.386719 72.210938 68.609375 C 73.679688 69.355469 74.980469 70.203125 76.089844 71.121094 C 76.058594 71.164062 76.023438 71.203125 75.992188 71.246094 C 74.015625 73.765625 71.820312 76.085938 69.515625 78.136719 C 68.738281 77.492188 67.828125 76.902344 66.808594 76.382812 Z M 62.660156 75.195312 C 63.917969 75.570312 65.089844 76.007812 66.144531 76.515625 C 64.214844 78.804688 62.125 80.902344 59.898438 82.753906 C 59.390625 82.511719 58.832031 82.289062 58.238281 82.105469 C 59.683594 80.410156 61.1875 78.03125 62.660156 75.195312 Z M 58.019531 74.210938 C 59.488281 74.414062 60.898438 74.703125 62.214844 75.070312 C 60.71875 77.972656 59.207031 80.34375 57.796875 81.976562 C 57.054688 81.769531 56.265625 81.609375 55.445312 81.5 C 56.292969 79.863281 57.167969 77.339844 58.019531 74.210938 Z M 53.046875 73.867188 C 54.621094 73.871094 56.152344 73.976562 57.628906 74.160156 C 56.769531 77.292969 55.871094 79.816406 54.992188 81.445312 C 54.367188 81.375 53.710938 81.339844 53.046875 81.332031 Z M 50.6875 81.445312 C 49.804688 79.816406 48.910156 77.292969 48.054688 74.160156 C 49.515625 73.96875 51.046875 73.871094 52.625 73.863281 L 52.625 81.332031 C 51.964844 81.339844 51.3125 81.375 50.6875 81.445312 Z M 47.886719 81.976562 C 46.476562 80.34375 44.964844 77.972656 43.46875 75.070312 C 44.78125 74.710938 46.1875 74.417969 47.667969 74.210938 C 48.507812 77.347656 49.382812 79.863281 50.238281 81.5 C 49.410156 81.605469 48.621094 81.765625 47.886719 81.976562 Z M 45.785156 82.753906 C 43.558594 80.902344 41.46875 78.804688 39.535156 76.519531 C 40.59375 76.015625 41.761719 75.574219 43.023438 75.195312 C 44.496094 78.03125 46.003906 80.410156 47.4375 82.101562 C 46.84375 82.289062 46.289062 82.503906 45.785156 82.753906 Z M 38.871094 76.378906 C 37.855469 76.902344 36.941406 77.492188 36.164062 78.128906 C 33.855469 76.082031 31.664062 73.765625 29.691406 71.246094 C 29.652344 71.203125 29.621094 71.160156 29.589844 71.117188 C 30.683594 70.210938 31.992188 69.371094 33.472656 68.621094 C 35.082031 71.390625 36.894531 73.992188 38.871094 76.378906 Z M 42.824219 74.8125 C 41.539062 75.195312 40.339844 75.65625 39.257812 76.183594 C 37.277344 73.796875 35.464844 71.203125 33.855469 68.433594 C 35.445312 67.652344 37.234375 66.976562 39.167969 66.417969 C 40.3125 69.464844 41.554688 72.3125 42.824219 74.8125 Z M 47.550781 73.796875 C 46.050781 74.007812 44.617188 74.308594 43.273438 74.683594 C 42.015625 72.203125 40.773438 69.355469 39.621094 66.28125 C 41.496094 65.761719 43.507812 65.351562 45.625 65.058594 C 46.222656 68.257812 46.878906 71.226562 47.550781 73.796875 Z M 52.625 64.578125 L 52.625 73.441406 C 51.015625 73.449219 49.449219 73.558594 47.941406 73.746094 C 47.253906 71.175781 46.589844 68.210938 45.984375 65.011719 C 48.109375 64.734375 50.335938 64.589844 52.625 64.578125 Z M 52.625 54.613281 L 52.625 64.15625 C 50.320312 64.164062 48.066406 64.316406 45.910156 64.589844 C 45.347656 61.597656 44.847656 58.402344 44.417969 55.144531 C 47.042969 54.804688 49.792969 54.621094 52.625 54.613281 Z M 52.625 49.894531 L 52.625 54.191406 C 49.789062 54.195312 47.023438 54.378906 44.363281 54.71875 C 44.179688 53.316406 44.015625 51.894531 43.863281 50.460938 C 46.667969 50.105469 49.601562 49.90625 52.625 49.894531 Z M 52.625 49.472656 C 49.605469 49.480469 46.652344 49.671875 43.820312 50.039062 C 43.65625 48.441406 43.511719 46.835938 43.394531 45.253906 C 46.34375 44.871094 49.4375 44.664062 52.625 44.652344 Z M 53.046875 49.472656 L 53.046875 44.660156 C 56.191406 44.671875 59.292969 44.886719 62.285156 45.277344 C 62.171875 46.851562 62.027344 48.445312 61.859375 50.039062 C 59.027344 49.671875 56.074219 49.480469 53.046875 49.472656 Z M 53.046875 54.191406 L 53.046875 49.894531 C 56.0625 49.90625 59 50.09375 61.820312 50.457031 C 61.671875 51.886719 61.503906 53.316406 61.320312 54.726562 C 58.660156 54.378906 55.890625 54.195312 53.046875 54.191406 Z M 53.046875 64.15625 L 53.046875 54.613281 C 55.867188 54.617188 58.621094 54.800781 61.265625 55.140625 C 60.839844 58.402344 60.332031 61.597656 59.773438 64.597656 C 57.613281 64.316406 55.355469 64.164062 53.046875 64.15625 Z M 53.046875 64.578125 C 55.332031 64.589844 57.558594 64.730469 59.699219 65.007812 C 59.09375 68.210938 58.429688 71.175781 57.738281 73.753906 C 56.230469 73.558594 54.65625 73.449219 53.046875 73.441406 Z M 44.121094 83.792969 C 41.527344 82.382812 38.933594 80.554688 36.476562 78.40625 C 37.234375 77.792969 38.128906 77.226562 39.144531 76.714844 C 41.074219 79.003906 43.160156 81.09375 45.375 82.964844 C 44.910156 83.214844 44.488281 83.488281 44.121094 83.792969 Z M 60.304688 82.964844 C 62.523438 81.101562 64.609375 79.003906 66.53125 76.714844 C 67.539062 77.226562 68.429688 77.792969 69.191406 78.421875 C 66.730469 80.5625 64.148438 82.386719 61.554688 83.796875 C 61.1875 83.496094 60.773438 83.21875 60.304688 82.964844 Z M 57.238281 92.296875 C 56.8125 92.199219 56.402344 91.976562 56.007812 91.640625 C 56.703125 91.527344 57.363281 91.378906 57.984375 91.199219 C 58.796875 91.523438 59.589844 91.722656 60.445312 91.796875 C 59.390625 92.007812 58.316406 92.171875 57.238281 92.296875 Z M 61.523438 88.59375 C 59.914062 90.210938 56.5 91.253906 52.835938 91.253906 C 49.171875 91.253906 45.765625 90.210938 44.148438 88.59375 C 43.523438 87.96875 43.203125 87.296875 43.203125 86.613281 C 43.203125 84.046875 47.527344 81.960938 52.835938 81.960938 C 56.5 81.960938 59.914062 83.007812 61.523438 84.625 C 62.15625 85.25 62.476562 85.921875 62.476562 86.613281 C 62.476562 87.296875 62.15625 87.96875 61.523438 88.59375 Z M 19.664062 70.882812 C 19.683594 69.585938 20.015625 68.328125 20.613281 67.113281 C 20.71875 67.296875 20.820312 67.476562 20.933594 67.660156 C 22.453125 70.121094 24.230469 72.40625 26.226562 74.5 C 25.746094 75.449219 25.472656 76.429688 25.402344 77.425781 C 23.332031 75.574219 21.371094 73.40625 19.664062 70.882812 Z M 25.800781 77.785156 C 25.828125 76.761719 26.082031 75.773438 26.542969 74.824219 C 28.742188 77.058594 31.203125 79.074219 33.90625 80.832031 C 33.566406 81.511719 33.375 82.207031 33.328125 82.921875 C 30.832031 81.605469 28.25 79.914062 25.800781 77.785156 Z M 35.683594 87.382812 C 35.25 86.957031 34.898438 86.515625 34.613281 86.066406 C 37.492188 87.109375 40.378906 87.75 42.949219 88.042969 C 43.09375 88.320312 43.277344 88.578125 43.507812 88.835938 C 41.171875 88.941406 38.632812 88.578125 36.175781 87.84375 C 36.007812 87.691406 35.835938 87.542969 35.683594 87.382812 Z M 41.894531 90.964844 C 41.484375 90.824219 41.082031 90.675781 40.691406 90.519531 C 42.046875 90.667969 43.445312 90.582031 45.542969 90.339844 C 46.007812 90.582031 46.511719 90.800781 47.054688 90.984375 C 45.90625 91.371094 44.753906 91.492188 43.347656 91.359375 C 43.34375 91.359375 43.332031 91.359375 43.332031 91.359375 C 42.851562 91.242188 42.371094 91.105469 41.894531 90.964844 Z M 63.777344 90.964844 C 63.300781 91.105469 62.828125 91.238281 62.34375 91.359375 C 62.339844 91.359375 62.339844 91.359375 62.335938 91.359375 C 60.929688 91.492188 59.789062 91.371094 58.644531 90.988281 C 59.191406 90.800781 59.699219 90.582031 60.15625 90.34375 C 62.238281 90.582031 63.632812 90.667969 64.980469 90.519531 C 64.59375 90.675781 64.1875 90.824219 63.777344 90.964844 Z M 69.5 87.84375 C 67.039062 88.578125 64.507812 88.941406 62.183594 88.835938 C 62.40625 88.578125 62.589844 88.320312 62.738281 88.042969 C 65.300781 87.75 68.1875 87.113281 71.066406 86.070312 C 70.773438 86.515625 70.421875 86.957031 69.996094 87.382812 C 69.839844 87.542969 69.667969 87.691406 69.5 87.84375 Z M 72.347656 82.925781 C 72.300781 82.207031 72.109375 81.515625 71.769531 80.832031 C 74.472656 79.074219 76.9375 77.066406 79.136719 74.824219 C 79.605469 75.785156 79.851562 76.777344 79.871094 77.789062 C 77.425781 79.914062 74.84375 81.609375 72.347656 82.925781 Z M 80.277344 77.433594 C 80.207031 76.433594 79.929688 75.457031 79.445312 74.503906 C 81.453125 72.40625 83.230469 70.121094 84.75 67.660156 C 84.859375 67.476562 84.960938 67.296875 85.070312 67.113281 C 85.675781 68.339844 85.992188 69.605469 86.007812 70.894531 C 84.300781 73.414062 82.347656 75.578125 80.277344 77.433594 Z M 86.402344 70.285156 C 86.300781 69.054688 85.9375 67.855469 85.328125 66.679688 C 85.988281 65.53125 86.59375 64.363281 87.121094 63.175781 C 87.785156 64.507812 88.128906 65.871094 88.144531 67.269531 C 87.601562 68.324219 87.019531 69.328125 86.402344 70.285156 Z M 84.984375 53.410156 C 83.382812 52.054688 81.472656 50.824219 79.316406 49.734375 C 79.871094 46.824219 80.179688 43.953125 80.21875 41.191406 C 82.460938 42.332031 84.421875 43.628906 86.050781 45.046875 C 86.050781 47.613281 85.738281 50.257812 85.097656 52.957031 C 85.0625 53.109375 85.019531 53.261719 84.984375 53.410156 Z M 66.191406 19.148438 C 67.34375 20.179688 68.320312 21.449219 69.136719 22.945312 C 66.792969 22.296875 64.285156 21.796875 61.671875 21.445312 C 61.285156 20.066406 60.804688 18.863281 60.210938 17.90625 C 62.300781 18.195312 64.304688 18.613281 66.191406 19.148438 Z M 39.46875 19.164062 C 41.355469 18.628906 43.371094 18.207031 45.46875 17.910156 C 44.871094 18.867188 44.398438 20.070312 44.015625 21.445312 C 41.398438 21.800781 38.890625 22.304688 36.546875 22.945312 C 37.351562 21.464844 38.324219 20.195312 39.46875 19.164062 Z M 20.582031 52.957031 C 19.945312 50.257812 19.632812 47.609375 19.625 45.042969 C 21.242188 43.644531 23.203125 42.351562 25.460938 41.207031 C 25.503906 43.945312 25.808594 46.789062 26.359375 49.671875 C 24.195312 50.757812 22.285156 51.980469 20.679688 53.332031 C 20.648438 53.207031 20.613281 53.082031 20.582031 52.957031 Z M 15.816406 62.9375 C 15.816406 61.453125 16.179688 60.003906 16.863281 58.621094 C 17.269531 59.980469 17.765625 61.332031 18.339844 62.660156 C 17.671875 63.898438 17.277344 65.175781 17.152344 66.46875 C 16.664062 65.453125 16.222656 64.394531 15.828125 63.289062 C 15.824219 63.175781 15.816406 63.054688 15.816406 62.9375 Z M 17.816406 69.554688 C 17.703125 69.125 17.628906 68.691406 17.582031 68.253906 C 18.101562 69.210938 18.652344 70.128906 19.238281 70.996094 C 19.238281 71.003906 19.238281 71.007812 19.238281 71.015625 C 19.238281 71.636719 19.308594 72.25 19.441406 72.863281 C 18.84375 71.785156 18.300781 70.683594 17.816406 69.554688 Z M 22.171875 77.050781 C 22.144531 77.023438 22.117188 77 22.085938 76.988281 C 21.511719 76.210938 20.976562 75.410156 20.46875 74.597656 C 20.027344 73.628906 19.761719 72.640625 19.683594 71.640625 C 21.394531 74.070312 23.332031 76.167969 25.375 77.960938 C 25.378906 78.949219 25.597656 79.929688 26.011719 80.878906 C 24.597656 79.753906 23.289062 78.484375 22.171875 77.050781 Z M 28.828125 84.050781 C 28.269531 83.523438 27.785156 82.976562 27.378906 82.414062 C 29.457031 83.824219 31.707031 84.953125 33.980469 85.828125 C 34.292969 86.417969 34.714844 86.984375 35.25 87.542969 C 33.511719 86.941406 31.839844 86.15625 30.335938 85.21875 C 29.828125 84.839844 29.324219 84.457031 28.828125 84.050781 Z M 76.851562 84.050781 C 76.34375 84.460938 75.824219 84.863281 75.300781 85.246094 C 73.800781 86.183594 72.128906 86.957031 70.402344 87.550781 C 70.929688 87.007812 71.355469 86.429688 71.679688 85.832031 C 73.957031 84.964844 76.203125 83.835938 78.285156 82.425781 C 77.882812 82.980469 77.402344 83.527344 76.851562 84.050781 Z M 83.589844 76.988281 C 83.5625 77 83.535156 77.023438 83.511719 77.050781 C 82.390625 78.492188 81.078125 79.761719 79.660156 80.890625 C 80.078125 79.933594 80.292969 78.957031 80.296875 77.96875 C 82.339844 76.171875 84.28125 74.078125 85.988281 71.65625 C 85.910156 72.65625 85.640625 73.640625 85.203125 74.605469 C 84.695312 75.417969 84.160156 76.210938 83.589844 76.988281 Z M 86.230469 72.863281 C 86.367188 72.257812 86.4375 71.636719 86.4375 71.015625 C 87.019531 70.140625 87.570312 69.230469 88.089844 68.269531 C 88.046875 68.703125 87.96875 69.128906 87.863281 69.5625 C 87.371094 70.683594 86.832031 71.792969 86.230469 72.863281 Z M 87.667969 38.8125 C 86.960938 37.894531 86.105469 37.015625 85.140625 36.171875 C 84.804688 35.128906 84.410156 34.101562 83.957031 33.101562 C 84.652344 33.773438 85.273438 34.464844 85.804688 35.1875 C 86.496094 36.359375 87.113281 37.578125 87.667969 38.8125 Z M 75.976562 25.4375 C 74.0625 24.535156 71.957031 23.75 69.699219 23.101562 C 68.964844 21.675781 68.089844 20.445312 67.066406 19.398438 C 68.570312 19.859375 69.992188 20.40625 71.308594 21.015625 C 71.820312 21.304688 72.328125 21.59375 72.832031 21.910156 C 74.019531 22.882812 75.074219 24.0625 75.976562 25.4375 Z M 58.613281 16.691406 C 58.855469 16.882812 59.082031 17.105469 59.304688 17.363281 C 57.277344 17.121094 55.1875 16.992188 53.046875 16.980469 L 53.046875 16.261719 C 54.925781 16.269531 56.785156 16.414062 58.613281 16.691406 Z M 52.625 16.257812 L 52.625 16.980469 C 50.496094 16.992188 48.402344 17.128906 46.375 17.371094 C 46.589844 17.109375 46.824219 16.882812 47.066406 16.691406 C 48.882812 16.414062 50.742188 16.269531 52.625 16.257812 Z M 19.902344 35.167969 C 20.425781 34.460938 21.03125 33.773438 21.71875 33.121094 C 21.257812 34.128906 20.863281 35.167969 20.527344 36.226562 C 19.546875 37.074219 18.695312 37.972656 17.988281 38.890625 C 18.5625 37.609375 19.199219 36.367188 19.902344 35.167969 Z M 14.699219 53.683594 C 14.769531 52.617188 15.015625 51.574219 15.4375 50.558594 C 15.578125 53.0625 16.007812 55.558594 16.691406 58.015625 C 15.988281 59.304688 15.574219 60.636719 15.445312 62.003906 C 14.945312 59.527344 14.6875 56.984375 14.6875 54.40625 C 14.6875 54.164062 14.691406 53.921875 14.699219 53.683594 Z M 14.039062 54.3125 C 14.039062 54.339844 14.046875 54.363281 14.054688 54.390625 C 14.054688 54.394531 14.050781 54.402344 14.050781 54.40625 C 14.050781 64.761719 18.085938 74.503906 25.414062 81.832031 C 32.738281 89.15625 42.472656 93.1875 52.835938 93.1875 C 74.210938 93.1875 91.601562 75.804688 91.621094 54.4375 C 91.640625 54.402344 91.648438 54.359375 91.648438 54.3125 C 91.648438 53.972656 91.628906 53.640625 91.597656 53.304688 C 91.320312 43.359375 87.328125 34.042969 80.261719 26.980469 C 72.933594 19.65625 63.199219 15.621094 52.835938 15.621094 C 42.480469 15.621094 32.738281 19.65625 25.414062 26.980469 C 18.300781 34.09375 14.304688 43.472656 14.078125 53.492188 C 14.050781 53.769531 14.039062 54.039062 14.039062 54.3125 " fill-opacity="1" fill-rule="nonzero"/></g><path fill="#ff3e01" d="M 93.898438 61.960938 C 93.308594 62.007812 92.929688 62.402344 93.050781 62.835938 C 93.167969 63.273438 93.742188 63.585938 94.328125 63.535156 C 98.445312 63.191406 101.753906 62.570312 104.027344 61.683594 C 106.441406 60.742188 107.765625 59.488281 107.765625 57.929688 C 107.765625 54.6875 101.585938 50.925781 91.601562 47.472656 C 81.960938 44.140625 68.667969 40.984375 54 38.808594 C 46.585938 37.710938 39.539062 36.964844 33.136719 36.554688 C 23.867188 35.960938 15.925781 36.082031 10.191406 36.859375 C 4.109375 37.683594 0.398438 39.3125 0.015625 41.699219 C -0.0078125 41.839844 -0.0195312 41.980469 -0.0195312 42.113281 C -0.0195312 43.460938 0.988281 44.863281 2.84375 46.285156 C 4.632812 47.640625 7.238281 49.042969 10.511719 50.425781 C 11.050781 50.652344 11.707031 50.539062 11.96875 50.160156 C 12.234375 49.785156 12.011719 49.300781 11.472656 49.066406 C 8.398438 47.773438 5.972656 46.476562 4.359375 45.242188 C 2.929688 44.15625 2.160156 43.148438 2.160156 42.253906 C 2.160156 42.167969 2.167969 42.089844 2.179688 42.019531 C 2.449219 40.335938 5.578125 39.121094 10.761719 38.417969 C 16.292969 37.664062 24.039062 37.558594 33.136719 38.136719 C 39.46875 38.542969 46.441406 39.285156 53.75 40.371094 C 68.238281 42.515625 81.347656 45.621094 90.816406 48.894531 C 99.9375 52.050781 105.582031 55.265625 105.582031 57.789062 C 105.582031 58.753906 104.628906 59.585938 102.875 60.269531 C 100.816406 61.066406 97.753906 61.636719 93.898438 61.960938 " fill-opacity="1" fill-rule="nonzero"/><g clip-path="url(#9ca570ae08)"><path fill="#ff3e01" d="M 92.886719 14.734375 L 92.941406 14.734375 C 93.308594 19.570312 97.164062 23.433594 102 23.792969 L 102 23.855469 C 97.164062 24.214844 93.308594 28.078125 92.941406 32.914062 L 92.886719 32.914062 C 92.519531 28.078125 88.660156 24.214844 83.828125 23.855469 L 83.828125 23.792969 C 88.660156 23.433594 92.519531 19.570312 92.886719 14.734375 " fill-opacity="1" fill-rule="evenodd"/></g><path fill="#ff3e01" d="M 102.148438 31.417969 L 102.175781 31.417969 C 102.324219 33.476562 103.96875 35.117188 106.019531 35.269531 L 106.019531 35.296875 C 103.96875 35.449219 102.324219 37.089844 102.175781 39.144531 L 102.148438 39.144531 C 101.996094 37.089844 100.355469 35.449219 98.296875 35.296875 L 98.296875 35.269531 C 100.355469 35.117188 101.996094 33.476562 102.148438 31.417969 " fill-opacity="1" fill-rule="evenodd"/></svg>